# xmcd CD database file
#
# Track frame offsets:
#	150
#	18500
#	36537
#	48034
#	61529
#	72648
#	90775
#	106256
#	118994
#	133836
#	149469
#	165695
#
# Disc length: 2433 seconds
#
# Revision: 0
# Processed by: cddbd v1.5.1PL0 Copyright (c) Steve Scherf et al.
# Submitted via: CDex 1.51
#
DISCID=a6097f0c
DTITLE=Heather Holland - Four Roses
DYEAR=2004
DGENRE=Country
TTITLE0=Some Day I'll Take Home The Roses
TTITLE1=Gathering Flowers (for the master's bouquet)
TTITLE2=Gymhaka Yodel
TTITLE3=Could That Ever Be Me?
TTITLE4=My Big Sister
TTITLE5=Mother Pal and Sweetheart
TTITLE6=Four Roses
TTITLE7=Just One More Waltz (for old time's sake)
TTITLE8=Call Of The Ranges
TTITLE9=A Rosebush For Mama
TTITLE10=Dear Lord (please help me)
TTITLE11=Place Where I Live
EXTD=YEAR: 2004
EXTT0=
EXTT1=
EXTT2=
EXTT3=
EXTT4=
EXTT5=
EXTT6=
EXTT7=
EXTT8=
EXTT9=
EXTT10=
EXTT11=
PLAYORDER=
